# Blender v2.72 (sub 0) OBJ File: 'skybox.blend'
# www.blender.org
mtllib skybox.mtl
o Cube
v 1.000000 -1.000000 -1.000000
v 1.000000 -1.000000 1.000000
v -1.000000 -1.000000 1.000000
v -1.000000 -1.000000 -1.000000
v 1.000000 1.000000 -0.999999
v 0.999999 1.000000 1.000001
v -1.000000 1.000000 1.000000
v -1.000000 1.000000 -1.000000
vt 0.500000 0.375001
vt 0.250003 0.375001
vt 0.250003 0.125003
vt 0.250003 0.874997
vt 0.250003 0.625001
vt 0.499999 0.625000
vt 0.749986 0.375003
vt 0.749994 0.624997
vt 0.000001 0.624998
vt 0.000002 0.375004
vt 0.999999 0.624999
vt 0.499999 0.125003
vt 0.499998 0.874997
vt 0.999999 0.375003
vn 0.000000 -1.000000 0.000000
vn 0.000000 1.000000 0.000000
vn 1.000000 -0.000000 0.000000
vn -0.000000 -0.000000 1.000000
vn -1.000000 -0.000000 -0.000000
vn 0.000000 0.000000 -1.000000
usemtl Material
s off
f 2/1/1 3/2/1 4/3/1
f 8/4/2 7/5/2 6/6/2
f 1/7/3 5/8/3 6/6/3
f 2/1/4 6/6/4 7/5/4
f 7/5/5 8/9/5 4/10/5
f 1/11/6 4/8/6 8/7/6
f 1/12/1 2/1/1 4/3/1
f 5/13/2 8/4/2 6/6/2
f 2/1/3 1/7/3 6/6/3
f 3/2/4 2/1/4 7/5/4
f 3/2/5 7/5/5 4/10/5
f 5/14/6 1/11/6 8/7/6
